<svg width="49" height="49" viewBox="0 0 49 49" fill="none" xmlns="http://www.w3.org/2000/svg">
<path d="M24.5 48.5C37.7548 48.5 48.5 37.7548 48.5 24.5C48.5 11.2452 37.7548 0.5 24.5 0.5C11.2452 0.5 0.5 11.2452 0.5 24.5C0.5 37.7548 11.2452 48.5 24.5 48.5Z" fill="#EAA629"/>
<path d="M36.55 23.6919C36.486 22.1559 35.206 20.9399 33.638 20.9719C32.934 21.0039 32.294 21.2919 31.814 21.7399C29.638 20.2359 27.046 19.4359 24.39 19.3719L25.638 13.3879L29.766 14.2199C29.894 15.2759 30.822 16.0439 31.878 15.9159C32.934 15.7879 33.702 14.8599 33.574 13.8039C33.446 12.7479 32.518 11.9799 31.462 12.1079C30.854 12.1719 30.31 12.5239 30.022 13.0359L25.318 12.1079C24.998 12.0439 24.678 12.2359 24.614 12.5559L23.206 19.2439C20.518 19.2759 17.926 20.1079 15.686 21.6119C14.566 20.5559 12.774 20.5879 11.718 21.7399C10.662 22.8599 10.694 24.6519 11.846 25.7079C12.07 25.8999 12.326 26.0919 12.614 26.2199C12.582 26.5079 12.582 26.7959 12.614 27.0519C12.614 31.3719 17.638 34.8919 23.846 34.8919C30.054 34.8919 35.078 31.4039 35.078 27.0519C35.11 26.7639 35.11 26.4759 35.078 26.2199C35.974 25.7719 36.582 24.7799 36.55 23.6919ZM17.254 25.6439C17.254 24.5879 18.118 23.7239 19.174 23.7239C20.23 23.7239 21.094 24.5879 21.094 25.6439C21.094 26.6999 20.23 27.5639 19.174 27.5639C18.118 27.5639 17.254 26.6999 17.254 25.6439ZM28.454 30.9559C27.078 31.9799 25.414 32.5239 23.718 32.4279C22.022 32.4919 20.326 31.9799 18.982 30.9559C18.79 30.7319 18.822 30.4119 19.046 30.2199C19.238 30.0599 19.494 30.0599 19.718 30.2199C20.87 31.0519 22.278 31.4999 23.718 31.4359C25.158 31.4999 26.566 31.1159 27.75 30.2519C27.974 30.0599 28.294 30.0599 28.518 30.2519C28.71 30.4759 28.71 30.7959 28.518 31.0199V30.9559H28.454ZM28.134 27.6599C27.078 27.6599 26.214 26.7959 26.214 25.7399C26.214 24.6839 27.078 23.8199 28.134 23.8199C29.19 23.8199 30.054 24.6839 30.054 25.7399C30.086 26.7959 29.286 27.6919 28.198 27.7239C28.166 27.7239 28.134 27.7239 28.102 27.7239L28.134 27.6599Z" fill="white"/>
</svg>
