<svg width="49" height="48" viewBox="0 0 49 48" fill="none" xmlns="http://www.w3.org/2000/svg">
<path d="M24.5 48C37.7548 48 48.5 37.2548 48.5 24C48.5 10.7452 37.7548 0 24.5 0C11.2452 0 0.5 10.7452 0.5 24C0.5 37.2548 11.2452 48 24.5 48Z" fill="#0A66C2"/>
<path d="M11.3435 35V12.6H16.5275V35H11.3435ZM31.9555 17.528C33.3208 17.528 34.5368 17.8053 35.6035 18.36C36.6915 18.8933 37.5448 19.7253 38.1635 20.856C38.7822 21.9653 39.0915 23.3947 39.0915 25.144V35H34.0995V25.912C34.0995 24.5253 33.7902 23.5013 33.1715 22.84C32.5742 22.1787 31.7208 21.848 30.6115 21.848C29.8222 21.848 29.1075 22.0187 28.4675 22.36C27.8488 22.68 27.3582 23.1813 26.9955 23.864C26.6542 24.5467 26.4835 25.4213 26.4835 26.488V35H21.4915V17.784H26.2595V22.552L25.3635 21.112C25.9822 19.96 26.8675 19.0747 28.0195 18.456C29.1715 17.8373 30.4835 17.528 31.9555 17.528Z" fill="white"/>
</svg>
