<svg width="49" height="49" viewBox="0 0 49 49" fill="none" xmlns="http://www.w3.org/2000/svg">
<path d="M24.5 48.5C37.7548 48.5 48.5 37.7548 48.5 24.5C48.5 11.2452 37.7548 0.5 24.5 0.5C11.2452 0.5 0.5 11.2452 0.5 24.5C0.5 37.7548 11.2452 48.5 24.5 48.5Z" fill="url(#paint0_linear_226_4695)"/>
<g clip-path="url(#clip0_226_4695)">
<path d="M32.497 14.0049C29.169 13.8839 26.921 15.7919 25.735 19.6989C26.345 19.4259 26.938 19.3039 27.512 19.3039C31.731 19.3039 26.541 27.4589 25.249 27.4589C23.727 27.4589 22.812 20.1749 22.502 18.1859C22.071 15.4209 20.922 14.1279 19.055 14.3089C18.266 14.3839 17.08 15.1079 15.501 16.4899C14.351 17.5449 13.185 18.5949 12 19.6499L13.129 21.1219C14.204 20.3599 14.831 19.9779 15.01 19.9779C18.102 19.9779 17.898 34.9999 22.793 34.9999C27.495 34.9999 35.771 23.4789 35.977 18.8609L35.99 18.8509C36.124 15.6859 34.969 14.0659 32.497 14.0049Z" fill="white"/>
</g>
<defs>
<linearGradient id="paint0_linear_226_4695" x1="24.5" y1="0.5" x2="24.5" y2="48.5" gradientUnits="userSpaceOnUse">
<stop stop-color="#0C06AD"/>
<stop offset="1" stop-color="#000E66"/>
</linearGradient>
<clipPath id="clip0_226_4695">
<rect width="24" height="24" fill="white" transform="translate(12 12.5)"/>
</clipPath>
</defs>
</svg>
