<svg width="48" height="48" viewBox="0 0 48 48" fill="none" xmlns="http://www.w3.org/2000/svg">
<g clip-path="url(#clip0_61_2668)">
<path d="M24 48C37.2548 48 48 37.2548 48 24C48 10.7452 37.2548 0 24 0C10.7452 0 0 10.7452 0 24C0 37.2548 10.7452 48 24 48Z" fill="#12C64B"/>
<path d="M32.6701 32.8722C32.48 33.197 32.1687 33.4332 31.8047 33.5288C31.4406 33.6244 31.0535 33.5717 30.7283 33.3822C26.9946 31.2004 22.6828 30.8513 19.721 30.9276C17.7971 30.9769 15.8837 31.2292 14.0128 31.6804C13.6645 31.742 13.3057 31.6715 13.0066 31.4827C12.7075 31.2938 12.4896 31.0002 12.3955 30.6592C12.3013 30.3182 12.3378 29.9544 12.4977 29.6389C12.6576 29.3234 12.9294 29.0788 13.2601 28.9531C15.3212 28.4407 17.4316 28.1518 19.5546 28.0913C21.5864 28.0163 23.6203 28.1635 25.6201 28.5304C27.9223 28.9471 30.1362 29.7551 32.1655 30.9194C32.3277 31.0138 32.4695 31.1393 32.5828 31.2889C32.696 31.4384 32.7785 31.6089 32.8254 31.7905C32.8724 31.9721 32.8828 32.1612 32.8561 32.3469C32.8295 32.5326 32.7662 32.7111 32.6701 32.8722Z" fill="white"/>
<path d="M35.31 27.3876C35.1619 27.6418 34.9498 27.8527 34.6947 27.9991C34.4396 28.1456 34.1505 28.2225 33.8563 28.2222C33.5579 28.2226 33.2649 28.1425 33.0082 27.9903C28.5872 25.4076 23.4818 24.9903 19.9718 25.0994C17.693 25.1571 15.4267 25.456 13.2109 25.9913C12.787 26.091 12.341 26.0226 11.9665 25.8004C11.592 25.5781 11.3183 25.2194 11.2028 24.7995C11.0874 24.3796 11.1391 23.9314 11.3473 23.5489C11.5555 23.1664 11.9038 22.8795 12.3191 22.7485C14.7609 22.1443 17.2609 21.8059 19.7754 21.7394C22.1828 21.6468 24.593 21.8215 26.9618 22.2603C29.6864 22.7543 32.3062 23.7118 34.7072 25.0913C35.0909 25.3166 35.3697 25.6847 35.4826 26.115C35.5956 26.5454 35.5335 27.0029 35.31 27.3876Z" fill="white"/>
<path d="M38.7273 21.3793C38.5909 21.6136 38.4095 21.8187 38.1937 21.9827C37.9778 22.1467 37.7317 22.2665 37.4694 22.3352C37.2072 22.4038 36.9339 22.42 36.6654 22.3828C36.3968 22.3457 36.1383 22.2558 35.9045 22.1184C25.3936 15.9766 11.76 19.6284 11.6318 19.6639C11.3669 19.7478 11.0877 19.7774 10.811 19.7508C10.5344 19.7242 10.2659 19.6421 10.0218 19.5093C9.77767 19.3765 9.56286 19.1957 9.39026 18.9779C9.21765 18.7601 9.09081 18.5096 9.01732 18.2416C8.94384 17.9735 8.92523 17.6934 8.96261 17.418C8.99999 17.1426 9.09259 16.8776 9.23486 16.6389C9.37713 16.4001 9.56614 16.1925 9.79056 16.0286C10.015 15.8647 10.2702 15.7477 10.5409 15.6848C13.5288 14.9484 16.5874 14.536 19.6636 14.4548C22.6154 14.3448 25.5703 14.5588 28.4755 15.093C31.8164 15.6937 35.03 16.8614 37.9773 18.5457C38.2134 18.6817 38.4202 18.8632 38.5859 19.0795C38.7515 19.2959 38.8727 19.5429 38.9424 19.8063C39.0121 20.0697 39.029 20.3444 38.9921 20.6143C38.9552 20.8843 38.8652 21.1443 38.7273 21.3793Z" fill="white"/>
</g>
<defs>
<clipPath id="clip0_61_2668">
<rect width="48" height="48" fill="white"/>
</clipPath>
</defs>
</svg>
