<svg width="49" height="48" viewBox="0 0 49 48" fill="none" xmlns="http://www.w3.org/2000/svg">
<g clip-path="url(#clip0_61_2677)">
<path d="M19.1667 24C19.1667 26.9454 21.5545 29.3332 24.5001 29.3332C27.4455 29.3332 29.8333 26.9454 29.8333 24C29.8333 21.0544 27.4455 18.6666 24.5001 18.6666C21.5545 18.6666 19.1667 21.0544 19.1667 24Z" fill="url(#paint0_linear_61_2677)"/>
<path fill-rule="evenodd" clip-rule="evenodd" d="M30.9653 10.9762C29.2781 10.8992 28.7721 10.8829 24.5 10.8829C20.2278 10.8829 19.7217 10.8992 18.0345 10.9762C16.4746 11.0474 15.6274 11.308 15.0636 11.5271C14.3168 11.8173 13.7838 12.1641 13.2239 12.7239C12.664 13.2838 12.3172 13.8169 12.0271 14.5636C11.8079 15.1274 11.5473 15.9746 11.4761 17.5345C11.3991 19.2217 11.3829 19.7278 11.3829 24C11.3829 28.2721 11.3991 28.7781 11.4761 30.4653C11.5473 32.0252 11.8079 32.8724 12.0271 33.4362C12.3172 34.183 12.664 34.716 13.2239 35.2759C13.7838 35.8358 14.3168 36.1825 15.0636 36.4728C15.6274 36.6919 16.4746 36.9525 18.0345 37.0236C19.7215 37.1006 20.2274 37.1169 24.5 37.1169C28.7724 37.1169 29.2784 37.1006 30.9653 37.0236C32.5252 36.9525 33.3724 36.6919 33.9362 36.4728C34.683 36.1825 35.216 35.8358 35.7759 35.2759C36.3358 34.716 36.6825 34.183 36.9728 33.4362C37.1919 32.8724 37.4525 32.0252 37.5237 30.4653C37.6006 28.7781 37.6169 28.2721 37.6169 24C37.6169 19.7278 37.6006 19.2217 37.5237 17.5345C37.4525 15.9746 37.1919 15.1274 36.9728 14.5636C36.6825 13.8169 36.3358 13.2838 35.7759 12.7239C35.216 12.1641 34.683 11.8173 33.9362 11.5271C33.3724 11.308 32.5252 11.0474 30.9653 10.9762ZM16.2838 24C16.2838 19.4622 19.9623 15.7837 24.5001 15.7837C29.0377 15.7837 32.7162 19.4622 32.7162 24C32.7162 28.5376 29.0377 32.2161 24.5001 32.2161C19.9623 32.2161 16.2838 28.5376 16.2838 24ZM34.9607 15.4591C34.9607 16.5195 34.1011 17.3791 33.0407 17.3791C31.9803 17.3791 31.1207 16.5195 31.1207 15.4591C31.1207 14.3987 31.9803 13.5392 33.0407 13.5392C34.1011 13.5392 34.9607 14.3987 34.9607 15.4591Z" fill="url(#paint1_linear_61_2677)"/>
<path fill-rule="evenodd" clip-rule="evenodd" d="M48.5 24C48.5 37.2548 37.7548 48 24.5 48C11.2452 48 0.5 37.2548 0.5 24C0.5 10.7452 11.2452 0 24.5 0C37.7548 0 48.5 10.7452 48.5 24ZM17.9032 8.09631C19.6097 8.01844 20.1546 8 24.5 8C28.8452 8 29.3901 8.01844 31.0966 8.09631C32.7996 8.174 33.9628 8.44444 34.9804 8.84C36.0326 9.24887 36.9249 9.796 37.8144 10.6855C38.7039 11.5749 39.251 12.4672 39.6599 13.5194C40.0554 14.537 40.3259 15.7002 40.4036 17.4032C40.4814 19.1097 40.4998 19.6546 40.4998 24C40.4998 28.3452 40.4814 28.8901 40.4036 30.5966C40.3259 32.2996 40.0554 33.4628 39.6599 34.4804C39.251 35.5326 38.7039 36.4249 37.8144 37.3144C36.9249 38.2039 36.0326 38.751 34.9804 39.1599C33.9628 39.5554 32.7996 39.8259 31.0966 39.9036C29.3901 39.9814 28.8452 39.9998 24.5 39.9998C20.1546 39.9998 19.6097 39.9814 17.9032 39.9036C16.2002 39.8259 15.037 39.5554 14.0193 39.1599C12.9672 38.751 12.0749 38.2039 11.1854 37.3144C10.2959 36.4249 9.74881 35.5326 9.33994 34.4804C8.94437 33.4628 8.67394 32.2996 8.59625 30.5966C8.51838 28.8901 8.5 28.3452 8.5 24C8.5 19.6546 8.51838 19.1097 8.59625 17.4032C8.67394 15.7002 8.94437 14.537 9.33994 13.5194C9.74881 12.4672 10.2959 11.5749 11.1854 10.6855C12.0749 9.796 12.9672 9.24887 14.0193 8.84C15.037 8.44444 16.2002 8.174 17.9032 8.09631Z" fill="url(#paint2_linear_61_2677)"/>
</g>
<defs>
<linearGradient id="paint0_linear_61_2677" x1="28.7011" y1="-2.54329" x2="14.6743" y2="43.7975" gradientUnits="userSpaceOnUse">
<stop stop-color="#515BD4"/>
<stop offset="0.26" stop-color="#9510B8"/>
<stop offset="0.66" stop-color="#E51804"/>
<stop offset="1" stop-color="#FFBF00"/>
</linearGradient>
<linearGradient id="paint1_linear_61_2677" x1="28.7011" y1="-2.54329" x2="14.6743" y2="43.7975" gradientUnits="userSpaceOnUse">
<stop stop-color="#515BD4"/>
<stop offset="0.26" stop-color="#9510B8"/>
<stop offset="0.66" stop-color="#E51804"/>
<stop offset="1" stop-color="#FFBF00"/>
</linearGradient>
<linearGradient id="paint2_linear_61_2677" x1="28.7011" y1="-2.54329" x2="14.6743" y2="43.7975" gradientUnits="userSpaceOnUse">
<stop stop-color="#515BD4"/>
<stop offset="0.26" stop-color="#9510B8"/>
<stop offset="0.66" stop-color="#E51804"/>
<stop offset="1" stop-color="#FFBF00"/>
</linearGradient>
<clipPath id="clip0_61_2677">
<rect width="48" height="48" fill="white" transform="translate(0.5)"/>
</clipPath>
</defs>
</svg>
