<svg width="49" height="48" viewBox="0 0 49 48" fill="none" xmlns="http://www.w3.org/2000/svg">
<path d="M24.5 48C37.7548 48 48.5 37.2548 48.5 24C48.5 10.7452 37.7548 0 24.5 0C11.2452 0 0.5 10.7452 0.5 24C0.5 37.2548 11.2452 48 24.5 48Z" fill="black"/>
<path d="M19.0531 29.3204L16.3988 29.6757C16.1328 29.6682 15.8661 29.6847 15.602 29.7251C13.6362 30.0355 12.7102 32.1274 12.8971 33.4917C13.084 34.8559 14.8292 35.7103 16.795 35.3999C18.7341 35.0937 20.4058 33.3337 20.2718 31.9765L20.2742 31.9763L19.9345 29.1175L18.5485 19.4669L32.7848 17.2189L32.6725 16.3987L18.4308 18.6476L18.2594 17.4544L32.5566 15.1966L32.5734 15.3449L33.8748 26.8778L33.8504 26.9836L31.1961 27.3391C30.9301 27.3315 30.6634 27.348 30.3993 27.3885C28.4334 27.6989 27.5075 29.7908 27.6944 31.155C27.8813 32.5193 29.6265 33.3737 31.5923 33.0632C33.5313 32.757 35.2031 30.997 35.069 29.6398L35.0715 29.6396L34.7317 26.7808L33.4041 15.0628L33.3609 14.6823L32.8696 10.3456L17.227 12.8158L19.0776 29.2145L19.0531 29.3204Z" fill="#E251C8"/>
<path d="M17.0531 29.3204L14.3988 29.6757C14.1328 29.6682 13.8661 29.6847 13.602 29.7251C11.6362 30.0355 10.7102 32.1274 10.8971 33.4917C11.084 34.8559 12.8292 35.7103 14.795 35.3999C16.7341 35.0937 18.4058 33.3337 18.2718 31.9765L18.2742 31.9763L17.9345 29.1175L16.5485 19.4669L30.7848 17.2189L30.6725 16.3987L16.4308 18.6476L16.2594 17.4544L30.5566 15.1966L30.5734 15.3449L31.8748 26.8778L31.8504 26.9836L29.1961 27.3391C28.9301 27.3315 28.6634 27.348 28.3993 27.3885C26.4334 27.6989 25.5075 29.7908 25.6944 31.155C25.8813 32.5193 27.6265 33.3737 29.5923 33.0632C31.5313 32.757 33.2031 30.997 33.069 29.6398L33.0715 29.6396L32.7317 26.7808L31.4041 15.0628L31.3609 14.6823L30.8696 10.3456L15.227 12.8158L17.0776 29.2145L17.0531 29.3204Z" fill="white"/>
</svg>
