<svg width="49" height="49" viewBox="0 0 49 49" fill="none" xmlns="http://www.w3.org/2000/svg">
<path d="M24.5 48.5C37.7548 48.5 48.5 37.7548 48.5 24.5C48.5 11.2452 37.7548 0.5 24.5 0.5C11.2452 0.5 0.5 11.2452 0.5 24.5C0.5 37.7548 11.2452 48.5 24.5 48.5Z" fill="url(#paint0_linear_319_1112)"/>
<path d="M37.5977 17.8555C37.5977 17.8945 37.6042 17.9466 37.6172 18.0117C37.6302 18.0638 37.6367 18.1224 37.6367 18.1875C37.6367 18.4609 37.526 18.7018 37.3047 18.9102C37.0964 19.1185 36.862 19.2227 36.6016 19.2227C36.3932 19.2227 36.1979 19.1576 36.0156 19.0273C35.8464 18.8971 35.7227 18.7214 35.6445 18.5C35.4753 18.0052 35.3125 17.4779 35.1562 16.918C35 16.3451 34.8568 15.7852 34.7266 15.2383C34.6094 14.6914 34.4987 14.1771 34.3945 13.6953C34.2904 13.2135 34.2122 12.8034 34.1602 12.4648C33.418 12.5039 32.5716 12.5365 31.6211 12.5625C30.6706 12.5755 29.6484 12.582 28.5547 12.582L27.9102 36.7031C28.9779 36.7422 30.0065 36.8203 30.9961 36.9375C31.2826 36.9635 31.5039 37.0742 31.6602 37.2695C31.8294 37.4518 31.9141 37.6732 31.9141 37.9336C31.9141 38.2591 31.8034 38.513 31.582 38.6953C31.3737 38.8906 31.1523 38.9883 30.918 38.9883H30.8008C29.7461 38.8581 28.7044 38.7669 27.6758 38.7148C26.6471 38.6758 25.6185 38.6562 24.5898 38.6562C23.5482 38.6562 22.526 38.6758 21.5234 38.7148C20.5208 38.7669 19.5182 38.8581 18.5156 38.9883H18.3984C18.112 38.9883 17.8646 38.8776 17.6562 38.6562C17.4609 38.4349 17.3633 38.194 17.3633 37.9336C17.3633 37.6732 17.4479 37.4518 17.6172 37.2695C17.7995 37.0742 18.0208 36.9635 18.2812 36.9375C19.2839 36.8203 20.2669 36.7422 21.2305 36.7031L21.6797 12.4648C20.5729 12.4258 19.5312 12.3802 18.5547 12.3281C17.5911 12.263 16.7253 12.1979 15.957 12.1328C15.8789 12.4844 15.7812 12.9141 15.6641 13.4219C15.5599 13.9297 15.4362 14.4701 15.293 15.043C15.1628 15.6159 15.026 16.2018 14.8828 16.8008C14.7396 17.3867 14.5898 17.9401 14.4336 18.4609C14.3685 18.6823 14.2448 18.8646 14.0625 19.0078C13.8932 19.151 13.6979 19.2227 13.4766 19.2227C13.1771 19.2227 12.9297 19.1185 12.7344 18.9102C12.5391 18.6888 12.4414 18.4479 12.4414 18.1875C12.4414 18.1484 12.4414 18.1029 12.4414 18.0508C12.4414 17.9857 12.4544 17.9336 12.4805 17.8945C12.6758 17.2044 12.8711 16.4492 13.0664 15.6289C13.2617 14.8086 13.4375 14.0404 13.5938 13.3242C13.763 12.6081 13.8997 12.0091 14.0039 11.5273C14.1081 11.0456 14.1602 10.7982 14.1602 10.7852C14.2253 10.5378 14.3424 10.3424 14.5117 10.1992C14.694 10.056 14.9089 9.98438 15.1562 9.98438H15.3125C15.9896 10.0755 16.8099 10.1536 17.7734 10.2188C18.75 10.2839 19.7982 10.3424 20.918 10.3945C22.0508 10.4336 23.2227 10.4661 24.4336 10.4922C25.6445 10.5182 26.8294 10.5312 27.9883 10.5312C29.4076 10.5312 30.7161 10.5182 31.9141 10.4922C33.112 10.4531 34.1146 10.401 34.9219 10.3359H35C35.2344 10.3359 35.4492 10.4206 35.6445 10.5898C35.8398 10.7461 35.957 10.9414 35.9961 11.1758C35.9961 11.1888 36.0156 11.2995 36.0547 11.5078C36.0938 11.7161 36.1458 11.9961 36.2109 12.3477C36.276 12.6992 36.3542 13.1029 36.4453 13.5586C36.5495 14.0143 36.6602 14.4896 36.7773 14.9844C36.8945 15.4661 37.0182 15.9609 37.1484 16.4688C37.2917 16.9635 37.4414 17.4258 37.5977 17.8555Z" fill="white"/>
<defs>
<linearGradient id="paint0_linear_319_1112" x1="24.5" y1="0.5" x2="24.5" y2="48.5" gradientUnits="userSpaceOnUse">
<stop offset="0.02" stop-color="#5A51BE"/>
<stop offset="1" stop-color="#2A2558"/>
</linearGradient>
</defs>
</svg>
