<svg width="48" height="49" viewBox="0 0 48 49" fill="none" xmlns="http://www.w3.org/2000/svg">
<g clip-path="url(#clip0_226_4668)">
<path d="M24 48.5C37.2548 48.5 48 37.7548 48 24.5C48 11.2452 37.2548 0.5 24 0.5C10.7452 0.5 0 11.2452 0 24.5C0 37.7548 10.7452 48.5 24 48.5Z" fill="#FF6584"/>
<g clip-path="url(#clip1_226_4668)">
<path d="M14.1339 24.8535C14.6808 24.5082 15.2941 24.2286 15.9723 24.0144C16.1153 23.9666 16.2166 23.9311 16.2761 23.9072C16.3356 23.8834 16.4073 23.8388 16.4903 23.7733C16.5738 23.7077 16.6008 23.6333 16.5706 23.55C16.5406 23.4668 16.5141 23.3478 16.4903 23.1931C15.9551 21.8246 15.9551 20.7654 16.4903 20.0157C17.0381 19.2898 17.9481 18.9267 19.2219 18.9267C20.4952 18.9267 21.959 19.2779 23.613 19.9799L23.7204 20.0157C23.7914 20.0395 23.8718 20.0601 23.9609 20.0781C24.0504 20.0961 24.1367 20.0989 24.22 20.0871C24.303 20.0753 24.3626 20.0337 24.3983 19.9622C24.4341 19.8908 24.428 19.7718 24.3804 19.6051C23.8451 17.8794 23.9639 16.6359 24.7376 15.8741C25.6181 14.9935 27.0849 14.9519 29.1379 15.7493C31.1905 16.5468 33.2225 17.951 35.2339 19.9625C36.7571 21.4857 37.9324 23.0209 38.7595 24.5681C39.5866 26.1154 40 27.5728 40 28.9418C40 30.2269 39.6132 31.414 38.8398 32.5031C38.0661 33.5923 37.0458 34.4907 35.7782 35.1987C34.511 35.9065 33.0798 36.4603 31.4851 36.859C29.8904 37.2574 28.254 37.4568 26.576 37.4568C24.8979 37.4568 23.2884 37.2726 21.7474 36.9037C20.2064 36.5346 18.8614 36.0409 17.7132 35.4219C16.5646 34.8033 15.5619 34.1041 14.7052 33.3243C13.848 32.5448 13.1997 31.7301 12.7592 30.8787C12.3188 30.028 12.0984 29.1977 12.0984 28.3887C12.0984 27.6272 12.3004 26.9335 12.7055 26.3089C13.1098 25.6835 13.5861 25.1986 14.1339 24.8535ZM19.9618 33.0394C21.7053 34.4495 23.904 35.2914 26.5578 35.5651C28.2954 35.7318 29.9288 35.6068 31.4579 35.1903C32.9871 34.7734 34.2279 34.1251 35.1799 33.2444C36.1319 32.3635 36.6615 31.3518 36.7686 30.2092C36.9354 28.4718 36.1468 26.898 34.4034 25.4878C32.6599 24.0772 30.4612 23.2353 27.8073 22.9616C26.0698 22.7948 24.4364 22.92 22.9076 23.3365C21.3785 23.753 20.1374 24.4016 19.1853 25.2822C18.2331 26.1631 17.7038 27.1747 17.5968 28.3171C17.4304 30.0549 18.2184 31.6287 19.9618 33.0394Z" fill="white"/>
<path d="M26.04 25.6397C27.3014 25.3182 28.554 25.4317 29.7977 25.979C31.0414 26.5263 31.9427 27.3532 32.5021 28.4602C33.0615 29.5905 33.1003 30.7063 32.6182 31.8072C32.1362 32.908 31.2586 33.6607 29.9852 34.0656C28.6643 34.4938 27.3312 34.4225 25.9865 33.851C24.6417 33.2797 23.7017 32.387 23.1657 31.1734C22.6305 29.983 22.6454 28.8497 23.2106 27.7725C23.7762 26.6959 24.7191 25.9848 26.04 25.6397ZM27.9502 31.4235C28.212 31.8279 28.5839 32.1108 29.0661 32.2713C29.5481 32.4322 29.9917 32.4172 30.3961 32.2268C30.8006 32.0363 31.0565 31.7359 31.1636 31.3251C31.2708 30.9149 31.1934 30.5075 30.9316 30.1027C30.6818 29.7096 30.3247 29.4361 29.8606 29.2816C29.3963 29.1269 28.962 29.1327 28.5574 29.2994C28.1408 29.4777 27.8728 29.7755 27.7538 30.1918C27.6349 30.6083 27.7003 31.0187 27.9502 31.4235ZM26.2723 29.263C26.3555 29.4179 26.4866 29.5281 26.665 29.5936C26.8435 29.6591 27.0162 29.6619 27.1827 29.6026C27.5396 29.4357 27.6169 29.1683 27.4147 28.7993C27.3314 28.6444 27.2035 28.5345 27.0311 28.4688C26.8586 28.4033 26.689 28.4005 26.5224 28.46C26.3677 28.5192 26.2636 28.6296 26.2099 28.7903C26.1563 28.9506 26.177 29.1088 26.2723 29.263Z" fill="white"/>
<path d="M14.4908 21.4354C14.3593 21.6913 14.1574 21.8668 13.8835 21.9621C13.6096 22.0453 13.3452 22.0216 13.0893 21.8906C12.8333 21.7598 12.6577 21.5575 12.5624 21.2837C12.3365 20.6174 12.2976 19.918 12.4469 19.1863C12.5954 18.4545 12.9197 17.8087 13.4191 17.2493C13.919 16.6899 14.5205 16.3002 15.2223 16.0799C15.9245 15.8597 16.6326 15.8271 17.3464 15.9818C17.6325 16.0414 17.8525 16.1932 18.0074 16.4371C18.1619 16.6809 18.2093 16.9458 18.1496 17.2313C18.1021 17.517 17.9536 17.7372 17.7039 17.8919C17.4538 18.0465 17.1861 18.0941 16.9002 18.0348C16.1502 17.88 15.5141 18.0884 14.9901 18.6595C14.4662 19.2306 14.3238 19.8912 14.5617 20.641C14.6457 20.9147 14.6215 21.1796 14.4908 21.4354Z" fill="white"/>
<path d="M8.17993 18.3112C8.48374 16.8059 9.15289 15.4819 10.1883 14.3395C11.2238 13.1853 12.4615 12.3849 13.902 11.9383C15.3418 11.492 16.7933 11.4236 18.2575 11.733C18.5909 11.8045 18.8499 11.9799 19.0343 12.2597C19.2187 12.5396 19.2753 12.8459 19.2036 13.1791C19.1323 13.5124 18.9541 13.7712 18.668 13.9556C18.3828 14.1401 18.0732 14.1967 17.7402 14.1252C16.7046 13.9111 15.675 13.9618 14.6517 14.277C13.6281 14.5924 12.7474 15.1605 12.0094 15.9817C11.2718 16.791 10.7953 17.731 10.5811 18.8023C10.3667 19.8732 10.4261 20.8967 10.7595 21.8726C10.8546 22.1941 10.825 22.5035 10.6701 22.801C10.5156 23.0985 10.2777 23.3007 9.95627 23.4079C9.63483 23.5148 9.32545 23.4912 9.02802 23.3365C8.7304 23.1818 8.52801 22.9438 8.42078 22.6224C7.95678 21.2538 7.87656 19.8167 8.17993 18.3112Z" fill="white"/>
</g>
</g>
<defs>
<clipPath id="clip0_226_4668">
<rect width="48" height="48" fill="white" transform="translate(0 0.5)"/>
</clipPath>
<clipPath id="clip1_226_4668">
<rect width="32" height="32.0001" fill="white" transform="matrix(-1 0 0 1 40 8.5)"/>
</clipPath>
</defs>
</svg>
