<svg width="49" height="49" viewBox="0 0 49 49" fill="none" xmlns="http://www.w3.org/2000/svg">
<path d="M24.5 48.5C37.7548 48.5 48.5 37.7548 48.5 24.5C48.5 11.2452 37.7548 0.5 24.5 0.5C11.2452 0.5 0.5 11.2452 0.5 24.5C0.5 37.7548 11.2452 48.5 24.5 48.5Z" fill="#EAB729"/>
<path fill-rule="evenodd" clip-rule="evenodd" d="M38.1713 16.6685H9.82825C8.82019 16.6685 8 17.4891 8 18.498V30.502C8 31.5108 8.82019 32.3315 9.82825 32.3315H38.1713C39.1797 32.3315 40 31.5108 40 30.502V18.498C40 17.4891 39.1797 16.6685 38.1713 16.6685ZM38.1713 16.9923C39.0038 16.9923 39.6763 17.6656 39.6763 18.498V30.502C39.6763 31.3348 39.0038 32.0076 38.1713 32.0076H9.82825C8.99631 32.0076 8.32356 31.3348 8.32356 30.502V18.498C8.32356 17.6656 8.99638 16.9923 9.82825 16.9923H38.1713Z" fill="white"/>
<path d="M14.9755 19.9854H12.6077V29.1207H14.9755V19.9854Z" fill="white"/>
<path fill-rule="evenodd" clip-rule="evenodd" d="M20.0298 19.9854L19.4811 24.2542L19.1446 21.9339C19.0429 21.1902 18.95 20.539 18.857 19.9854H15.7854V29.1207H17.8612L17.87 23.0898L18.742 29.1207H20.2202L21.0522 22.957L21.0567 29.1207H23.1277V19.9854H20.0298Z" fill="white"/>
<path fill-rule="evenodd" clip-rule="evenodd" d="M26.8327 21.633C26.9252 21.6863 26.9876 21.7705 27.0143 21.8898C27.0406 22.005 27.0541 22.2705 27.0541 22.6825V26.2201C27.0541 26.8315 27.0143 27.2035 26.9344 27.341C26.8547 27.478 26.6469 27.5442 26.3059 27.5442V21.5491C26.5626 21.5492 26.7394 21.5755 26.8327 21.633ZM26.8103 29.1208C27.3769 29.1208 27.8018 29.0898 28.0852 29.0278C28.3636 28.966 28.6031 28.8598 28.7932 28.7002C28.9834 28.5449 29.1208 28.3283 29.1961 28.0538C29.2756 27.7791 29.3197 27.2304 29.3197 26.411V23.205C29.3197 22.3414 29.2842 21.7616 29.2358 21.4648C29.1827 21.1725 29.0499 20.9023 28.8374 20.6637C28.6294 20.4241 28.3196 20.2516 27.9167 20.1456C27.5138 20.0392 26.85 19.9856 25.7039 19.9856H23.9377V29.1209L26.8103 29.1208Z" fill="white"/>
<path fill-rule="evenodd" clip-rule="evenodd" d="M33.2105 26.9068C33.2105 27.3451 33.1879 27.6285 33.1438 27.7434C33.0998 27.859 32.9092 27.9159 32.7631 27.9159C32.6218 27.9159 32.5284 27.8632 32.48 27.7483C32.436 27.6375 32.4092 27.3806 32.4092 26.9776V24.5644C32.4092 24.1479 32.4311 23.891 32.4713 23.7847C32.5155 23.683 32.6083 23.6299 32.7454 23.6299C32.8916 23.6299 33.086 23.6922 33.1353 23.8072C33.1837 23.9265 33.2105 24.1791 33.2105 24.5645V26.9068ZM30.1252 19.9854V29.1207H32.2587L32.4092 28.5405C32.5994 28.7752 32.8119 28.9477 33.0462 29.0676C33.2813 29.1825 33.6263 29.2401 33.8959 29.2401C34.2681 29.2401 34.5952 29.1428 34.8653 28.9435C35.1398 28.7489 35.3128 28.514 35.3836 28.2482C35.4587 27.9782 35.4942 27.5709 35.4942 27.026V24.4627C35.4942 23.9094 35.4851 23.5503 35.4587 23.3822C35.3931 22.9629 35.1002 22.6154 34.7148 22.4519C34.4802 22.3546 34.2106 22.3057 33.8958 22.3057C33.6262 22.3057 33.2764 22.3595 33.0418 22.4702C32.8117 22.5761 32.5992 22.74 32.4091 22.957V19.9854H30.1252V19.9854Z" fill="white"/>
</svg>
