<svg width="49" height="48" viewBox="0 0 49 48" fill="none" xmlns="http://www.w3.org/2000/svg">
<path d="M24.5 48C37.7548 48 48.5 37.2548 48.5 24C48.5 10.7452 37.7548 0 24.5 0C11.2452 0 0.5 10.7452 0.5 24C0.5 37.2548 11.2452 48 24.5 48Z" fill="#1DA1F2"/>
<g clip-path="url(#clip0_95_4297)">
<path d="M38.864 23.147H40.9727C41.2638 23.147 41.4999 23.383 41.4999 23.6742C41.4999 23.9653 41.2639 24.2013 40.9727 24.2013H39.9183L38.864 23.147Z" fill="white"/>
<path d="M34.6466 18.9297C32.8269 18.9297 31.1211 19.9511 30.1491 21.4091L20.8316 28.3124C20.2156 28.7372 19.4849 28.9647 18.7366 28.9647H10.4843L9.79907 29.4733L13.2329 33.1523L22.0624 32.8063C23.8435 34.1603 26.1095 34.9096 28.5621 34.7143C33.5317 34.3186 37.2814 30.0062 37.2824 25.0211C37.2825 24.5684 37.6473 24.2015 38.1 24.2015H39.9183C39.9184 21.2899 37.5581 18.9297 34.6466 18.9297Z" fill="white"/>
<path d="M18.7367 28.4189H10.0282C9.56726 28.4189 9.32832 28.9687 9.64282 29.3057L9.79913 29.4732H18.7367C19.7032 29.4732 20.6346 29.1832 21.4259 28.6375L27.1582 24.7263C26.9114 24.4688 26.7119 24.1699 26.576 23.8472L20.8317 27.7665C20.2157 28.1913 19.485 28.4189 18.7367 28.4189Z" fill="white"/>
<path d="M18.3726 18.0415C18.0562 18.7457 17.876 19.5243 17.876 20.3464C17.876 23.4581 20.3985 25.9806 23.5102 25.9806C24.4965 25.9806 25.4227 25.7258 26.2291 25.2804L18.3726 18.0415Z" fill="white"/>
<path d="M35.1739 23.147C34.8825 23.147 34.6467 22.9109 34.6467 22.6198V22.0926C34.6467 21.8015 34.8825 21.5654 35.1739 21.5654C35.4653 21.5654 35.7011 21.8015 35.7011 22.0926V22.6198C35.7011 22.911 35.4653 23.147 35.1739 23.147Z" fill="white"/>
<path d="M18.6422 31.7373L13.2329 33.1526L15.6135 35.7033C15.9529 36.0669 16.5003 36.1439 16.9268 35.8881L22.0625 32.8066L21.3368 32.2641C20.5656 31.6874 19.5738 31.4936 18.6422 31.7373Z" fill="white"/>
<path d="M18.4031 13.4771C14.2516 21.0387 26.2291 25.2807 26.2291 25.2807L29.3518 23.5677L18.4031 13.4771Z" fill="white"/>
<path d="M18.3889 10.4474C17.8107 12.4408 17.8176 17.2366 27.3408 23.4071C27.9404 23.7956 28.6989 23.8578 29.3518 23.5676L29.7263 23.4011C30.5813 23.0211 30.7998 21.9078 30.1519 21.2328L19.5347 10.1731C19.1729 9.79625 18.5345 9.94563 18.3889 10.4474Z" fill="white"/>
</g>
<defs>
<clipPath id="clip0_95_4297">
<rect width="32" height="32" fill="white" transform="translate(9.5 7)"/>
</clipPath>
</defs>
</svg>
