<svg width="49" height="48" viewBox="0 0 49 48" fill="none" xmlns="http://www.w3.org/2000/svg">
<path d="M24.5 48C37.7548 48 48.5 37.2548 48.5 24C48.5 10.7452 37.7548 0 24.5 0C11.2452 0 0.5 10.7452 0.5 24C0.5 37.2548 11.2452 48 24.5 48Z" fill="#E71D27"/>
<path d="M36.1523 19.7188C36.1523 18.6641 35.9896 17.7331 35.6641 16.9258C35.3516 16.1055 34.9219 15.3958 34.375 14.7969C33.8411 14.1849 33.2031 13.6706 32.4609 13.2539C31.7318 12.8242 30.9505 12.4792 30.1172 12.2188C29.2839 11.9453 28.418 11.7435 27.5195 11.6133C26.6211 11.4831 25.7422 11.3984 24.8828 11.3594H23.5156L23.0859 27.8438C23.4896 27.9479 23.9258 28.026 24.3945 28.0781C24.8633 28.1302 25.3581 28.1562 25.8789 28.1562C27.2461 28.1562 28.5482 27.9805 29.7852 27.6289C31.0352 27.2643 32.1289 26.7305 33.0664 26.0273C34.0169 25.3242 34.7656 24.4453 35.3125 23.3906C35.8724 22.3359 36.1523 21.112 36.1523 19.7188ZM25.8789 30.207C25.3581 30.207 24.8568 30.1875 24.375 30.1484C23.9062 30.0964 23.4635 30.0182 23.0469 29.9141L22.8906 36.0859C23.3854 36.125 23.8867 36.1641 24.3945 36.2031C24.9154 36.2422 25.4362 36.2812 25.957 36.3203C26.2174 36.3594 26.4323 36.4766 26.6016 36.6719C26.7839 36.8672 26.875 37.0951 26.875 37.3555C26.875 37.6549 26.7643 37.8958 26.543 38.0781C26.3216 38.2604 26.0872 38.3516 25.8398 38.3516H25.7617C24.7201 38.2474 23.6784 38.1693 22.6367 38.1172C21.6081 38.0651 20.5729 38.0391 19.5312 38.0391C18.5026 38.0391 17.4805 38.0651 16.4648 38.1172C15.4622 38.1693 14.4531 38.2474 13.4375 38.3516H13.3594C13.0729 38.3516 12.8255 38.2474 12.6172 38.0391C12.4219 37.8438 12.3242 37.6159 12.3242 37.3555C12.3242 37.0951 12.4089 36.8672 12.5781 36.6719C12.7604 36.4766 12.9818 36.3594 13.2422 36.3203C13.724 36.2812 14.2057 36.2422 14.6875 36.2031C15.1823 36.1641 15.6706 36.125 16.1523 36.0859L16.6016 11.8477C15.638 12.0039 14.9219 12.1602 14.4531 12.3164C13.9974 12.4727 13.7565 12.5508 13.7305 12.5508C13.5742 12.6159 13.4505 12.6484 13.3594 12.6484C13.0729 12.6484 12.8255 12.5378 12.6172 12.3164C12.4219 12.0951 12.3242 11.8542 12.3242 11.5938C12.3242 11.3984 12.3763 11.2096 12.4805 11.0273C12.5977 10.8451 12.7604 10.7148 12.9688 10.6367C13.0078 10.6237 13.2487 10.5521 13.6914 10.4219C14.1341 10.2786 14.7721 10.1224 15.6055 9.95312C16.4518 9.78385 17.5 9.63411 18.75 9.50391C20 9.36068 21.4583 9.28906 23.125 9.28906C23.4115 9.28906 23.7044 9.28906 24.0039 9.28906C24.3164 9.28906 24.6224 9.30208 24.9219 9.32812C26.0547 9.36719 27.168 9.47786 28.2617 9.66016C29.3555 9.84245 30.3971 10.1224 31.3867 10.5C32.3763 10.8646 33.2812 11.3203 34.1016 11.8672C34.9349 12.4141 35.6576 13.0716 36.2695 13.8398C36.8815 14.5951 37.3568 15.4609 37.6953 16.4375C38.0339 17.4141 38.2031 18.5078 38.2031 19.7188C38.2031 20.8646 38.0339 21.9193 37.6953 22.8828C37.3568 23.8333 36.888 24.6992 36.2891 25.4805C35.7031 26.2487 35.013 26.9323 34.2188 27.5312C33.4245 28.1172 32.5651 28.612 31.6406 29.0156C30.7292 29.4062 29.7786 29.7057 28.7891 29.9141C27.8125 30.1094 26.8424 30.207 25.8789 30.207Z" fill="white"/>
</svg>
