<svg width="49" height="49" viewBox="0 0 49 49" fill="none" xmlns="http://www.w3.org/2000/svg">
<path d="M24.5 48.5C37.7548 48.5 48.5 37.7548 48.5 24.5C48.5 11.2452 37.7548 0.5 24.5 0.5C11.2452 0.5 0.5 11.2452 0.5 24.5C0.5 37.7548 11.2452 48.5 24.5 48.5Z" fill="url(#paint0_linear_226_4643)"/>
<g clip-path="url(#clip0_226_4643)">
<path d="M36 23.1667C35.644 23.1667 35.2947 23.2054 34.9573 23.2761C34.508 18.7307 30.6613 15.1667 26 15.1667C25.448 15.1667 25 15.6147 25 16.1667V32.1667C25 32.7187 25.448 33.1667 26 33.1667H36C38.7587 33.1667 41 30.9254 41 28.1667C41 25.4107 38.7587 23.1667 36 23.1667Z" fill="white"/>
<path d="M21 18.1667V32.1667C21 32.7187 21.448 33.1667 22 33.1667C22.552 33.1667 23 32.7187 23 32.1667V18.1667C23 17.6147 22.552 17.1667 22 17.1667C21.448 17.1667 21 17.6147 21 18.1667Z" fill="white"/>
<path d="M17 22.1667V32.1667C17 32.7187 17.448 33.1667 18 33.1667C18.552 33.1667 19 32.7187 19 32.1667V22.1667C19 21.6147 18.552 21.1667 18 21.1667C17.448 21.1667 17 21.6147 17 22.1667Z" fill="white"/>
<path d="M13 32.1667C13 32.7187 13.448 33.1667 14 33.1667C14.552 33.1667 15 32.7187 15 32.1667V22.1667C15 21.6147 14.552 21.1667 14 21.1667C13.448 21.1667 13 21.6147 13 22.1667V32.1667Z" fill="white"/>
<path d="M10 33.1667C10.552 33.1667 11 32.7187 11 32.1667V26.1667C11 25.6147 10.552 25.1667 10 25.1667C9.448 25.1667 9 25.6147 9 26.1667V32.1667C9 32.7187 9.448 33.1667 10 33.1667Z" fill="white"/>
</g>
<defs>
<linearGradient id="paint0_linear_226_4643" x1="24.5" y1="0.5" x2="24.5" y2="48.5" gradientUnits="userSpaceOnUse">
<stop stop-color="#FF9756"/>
<stop offset="1" stop-color="#FF6200"/>
</linearGradient>
<clipPath id="clip0_226_4643">
<rect width="32" height="32" fill="white" transform="translate(9 8.5)"/>
</clipPath>
</defs>
</svg>
