<svg width="48" height="49" viewBox="0 0 48 49" fill="none" xmlns="http://www.w3.org/2000/svg">
<g clip-path="url(#clip0_226_4675)">
<path d="M24 48.5C37.2548 48.5 48 37.7548 48 24.5C48 11.2452 37.2548 0.5 24 0.5C10.7452 0.5 0 11.2452 0 24.5C0 37.7548 10.7452 48.5 24 48.5Z" fill="#252525"/>
<g clip-path="url(#clip1_226_4675)">
<path fill-rule="evenodd" clip-rule="evenodd" d="M39.4546 20.3594C40.814 25.4327 37.7925 30.6658 32.7192 32.0252L17.2778 36.1627C17.0778 36.2163 16.872 36.0975 16.8185 35.8975L15.8469 32.2717C15.7933 32.0717 15.9127 31.8658 16.1121 31.8124L31.5535 27.6749C34.2282 26.9582 35.8207 24.1996 35.104 21.5249C34.3874 18.8503 31.6289 17.2577 28.9543 17.9744L13.5128 22.1119C13.3129 22.1654 13.1071 22.0465 13.0536 21.8467L12.082 18.2208C12.0284 18.0209 12.1472 17.8151 12.3472 17.7616L27.7886 13.6241C32.8619 12.2647 38.0955 15.2866 39.4548 20.3595L39.4546 20.3594ZM17.4457 35.3413L32.5249 31.3008C37.1986 30.0485 39.982 25.2272 38.7298 20.5536C37.4775 15.88 32.6563 13.0964 27.9826 14.3487L12.9034 18.3892L13.6808 21.2904L28.76 17.25C31.8341 16.4262 35.0048 18.257 35.8285 21.331C36.6523 24.4052 34.8215 27.5759 31.7475 28.3996L16.6683 32.44L17.4457 35.3413Z" fill="white"/>
<path fill-rule="evenodd" clip-rule="evenodd" d="M17.7233 16.7092L18.6948 20.3351C18.8226 20.8119 18.0981 21.0059 17.9704 20.5292L16.9988 16.9033C16.871 16.4265 17.5955 16.2324 17.7233 16.7092ZM21.4881 30.7599L22.4597 34.3857C22.5874 34.8626 21.863 35.0567 21.7352 34.5798L20.7637 30.954C20.6359 30.4773 21.3603 30.283 21.4881 30.7599Z" fill="white"/>
<path fill-rule="evenodd" clip-rule="evenodd" d="M39.4544 20.3593C39.508 20.5593 39.389 20.7651 39.1893 20.8186L35.5634 21.7902C35.0865 21.9179 34.8926 21.1935 35.3693 21.0657L38.9951 20.0942C39.1949 20.0407 39.4008 20.1594 39.4544 20.3593Z" fill="white"/>
<path fill-rule="evenodd" clip-rule="evenodd" d="M29.0255 24.1411C29.0992 24.4162 28.847 24.6752 28.5661 24.6L24.037 23.3864L24.8097 26.27C24.8844 26.5491 24.6277 26.8037 24.3503 26.7291L18.3886 25.1316C17.9127 25.0041 18.1054 24.2795 18.5828 24.4074L23.9169 25.8368L23.1442 22.953C23.0694 22.6739 23.3262 22.4193 23.6035 22.4937L28.7598 23.8755C28.8943 23.9115 28.9919 24.0158 29.0255 24.1411Z" fill="white"/>
<path fill-rule="evenodd" clip-rule="evenodd" d="M15.1687 35.6086C15.2223 35.8086 15.1035 36.0143 14.9036 36.0679L11.1904 37.0629C10.7135 37.1906 10.5194 36.4662 10.9963 36.3384L14.7095 35.3435C14.9094 35.2899 15.1151 35.4085 15.1687 35.6086Z" fill="white"/>
<path fill-rule="evenodd" clip-rule="evenodd" d="M14.6757 33.7685C14.7293 33.9684 14.6105 34.1742 14.4105 34.2277L12.5539 34.7252C12.0771 34.853 11.883 34.1285 12.3598 34.0008L14.2164 33.5033C14.4163 33.4497 14.622 33.5682 14.6757 33.7685Z" fill="white"/>
<path fill-rule="evenodd" clip-rule="evenodd" d="M10.7975 19.2959C10.851 19.4959 10.7322 19.7017 10.5323 19.7552L6.81932 20.7501C6.34245 20.8779 6.14834 20.1534 6.62521 20.0257L10.3382 19.0308C10.5384 18.9767 10.7439 19.096 10.7975 19.2959Z" fill="white"/>
<path fill-rule="evenodd" clip-rule="evenodd" d="M11.2905 21.1359C11.3441 21.3359 11.2253 21.5416 11.0253 21.5952L9.16893 22.0926C8.69206 22.2204 8.49795 21.496 8.97481 21.3682L10.8312 20.8708C11.0315 20.8171 11.2369 20.936 11.2905 21.1359Z" fill="white"/>
</g>
</g>
<defs>
<clipPath id="clip0_226_4675">
<rect width="48" height="48" fill="white" transform="translate(0 0.5)"/>
</clipPath>
<clipPath id="clip1_226_4675">
<rect width="32" height="32" fill="white" transform="translate(12.6863 44.0959) rotate(-105)"/>
</clipPath>
</defs>
</svg>
