<svg width="25" height="24" viewBox="0 0 25 24" fill="none" xmlns="http://www.w3.org/2000/svg">
<mask id="mask0_61_2709" style="mask-type:alpha" maskUnits="userSpaceOnUse" x="0" y="0" width="25" height="24">
<rect x="0.5" width="24" height="24" fill="#D9D9D9"/>
</mask>
<g mask="url(#mask0_61_2709)">
<path d="M12.5 15.575C12.3667 15.575 12.2417 15.554 12.125 15.512C12.0083 15.4707 11.9 15.4 11.8 15.3L8.2 11.7C8.01667 11.5167 7.925 11.2833 7.925 11C7.925 10.7167 8.01667 10.4833 8.2 10.3C8.38333 10.1167 8.62067 10.0207 8.912 10.012C9.204 10.004 9.44167 10.0917 9.625 10.275L11.5 12.15V5C11.5 4.71667 11.596 4.479 11.788 4.287C11.9793 4.09567 12.2167 4 12.5 4C12.7833 4 13.021 4.09567 13.213 4.287C13.4043 4.479 13.5 4.71667 13.5 5V12.15L15.375 10.275C15.5583 10.0917 15.796 10.004 16.088 10.012C16.3793 10.0207 16.6167 10.1167 16.8 10.3C16.9833 10.4833 17.075 10.7167 17.075 11C17.075 11.2833 16.9833 11.5167 16.8 11.7L13.2 15.3C13.1 15.4 12.9917 15.4707 12.875 15.512C12.7583 15.554 12.6333 15.575 12.5 15.575ZM6.5 20C5.95 20 5.47933 19.8043 5.088 19.413C4.696 19.021 4.5 18.55 4.5 18V16C4.5 15.7167 4.59567 15.479 4.787 15.287C4.979 15.0957 5.21667 15 5.5 15C5.78333 15 6.021 15.0957 6.213 15.287C6.40433 15.479 6.5 15.7167 6.5 16V18H18.5V16C18.5 15.7167 18.596 15.479 18.788 15.287C18.9793 15.0957 19.2167 15 19.5 15C19.7833 15 20.0207 15.0957 20.212 15.287C20.404 15.479 20.5 15.7167 20.5 16V18C20.5 18.55 20.3043 19.021 19.913 19.413C19.521 19.8043 19.05 20 18.5 20H6.5Z" fill="white"/>
</g>
</svg>
