<svg width="395.99999999999994" height="228.5013054830287" viewBox="0 0 383 221" class="looka-1j8o68f"><defs id="SvgjsDefs3992"></defs><g id="SvgjsG3993" featurekey="rootContainer" transform="matrix(1,0,0,1,0,0)" fill="#111111">    <path xmlns="http://www.w3.org/2000/svg" fill-rule="nonzero" d="             M0,0             H383             V221             H0,0             z             M4,4             v213             h375             v-213             z     "></path></g><g id="SvgjsG3994" featurekey="symbolFeature-0" transform="matrix(1.3409961685823755,0,0,1.3409961685823755,125.29501915708812,-2.175091038261794)" fill="#295326"><path xmlns="http://www.w3.org/2000/svg" d="M95,14.296L29.416,79.881v-5.596l62.223-62.223h-7.777L29.416,66.506V60.91l48.849-48.848h-7.779L49.812,32.734  L29.14,12.062h-7.779l24.562,24.563l-2.799,2.798l-27.36-27.361H7.986l31.25,31.25l-2.798,2.798L5,14.673v7.696v0.083v65.485h5.5  V27.953l3.958,3.957v56.027h5.5V37.412l3.958,3.957v46.568h2.75h2.475h0.276V87.66l20.396-20.395l20.674,20.672h0.099h1.541h3.959  V40.994l3.958-3.959v50.902h5.5V31.535l3.958-3.958v60.36H95V22.369h-0.291L95,22.078V14.296z M32.546,50l-3.13,3.131v-6.262  L32.546,50z M63.188,53.891l7.396,7.396v5.598L60.389,56.688L63.188,53.891z M53.702,63.375l2.798-2.799l14.084,14.086v5.596  L53.702,63.375z M70.584,53.506l-3.506-3.507l3.506-3.506V53.506z"></path></g><g id="SvgjsG3995" featurekey="nameFeature-0" transform="matrix(0.852576671537344,0,0,0.852576671537344,16.31793850015403,126.24652323536819)" fill="#111111"><path d="M9 40.64 c-3.44 0 -8.2 -1.48 -8.2 -1.48 l2.8 -7.96 s1.88 3.8 5.2 3.8 c2.68 0 4.36 -1.16 4.36 -2.92 c0 -3.2 -11.76 -3.3984 -11.76 -11.52 c0 -5.96 4.92 -9.12 11.64 -9.12 c3.32 0 7.36 1.8 7.36 1.8 l-2.76 7.52 s-2.24 -3.96 -4.8 -3.96 c-2.16 0 -3.36 1.36 -3.36 2.68 c0 3.12 12.08 3.64 12.08 11.6 c0 5.92 -5.52 9.56 -12.56 9.56 z M35.92 40.56 c-6.56 0 -11.56 -3.72 -11.56 -10.56 l0 -13.08 c0 -2.48 -1.88 -4.92 -1.88 -4.92 l11.76 0 s-1.88 2.4 -1.88 4.8 l0 13.2 c0 3.24 1.16 4.72 3.56 4.72 c2.44 0 3.6 -1.48 3.6 -4.72 l0 -13.08 c0 -2.48 -1.88 -4.92 -1.88 -4.92 l11.76 0 s-1.88 2.4 -1.88 4.8 l0 13.2 c0 6.84 -5 10.56 -11.6 10.56 z M50.04 40 c0 0 1.88 -2.4 1.88 -4.76 l0 -18.48 c0 -2.36 -1.88 -4.76 -1.88 -4.76 l12.4 0 c6.6 0 12.24 2.68 12.24 8.88 c0 4.16 -2.08 6.84 -5.2 8.4 c-1.8 0.88 -3.92 1.36 -6.24 1.56 c-0.72 0.08 -2.6 0.08 -3.32 0.08 l0 4.32 c0 2.36 1.88 4.76 1.88 4.76 l-11.76 0 z M59.919999999999995 25.6 l1.44 0 c2.84 0 4.96 -1.36 4.96 -3.92 c0 -3 -2.44 -3.96 -5.28 -3.96 l-1.12 0 l0 7.88 z M76.39999999999999 40 c0 0 1.88 -2.36 1.88 -4.76 l0 -18.44 c0 -2.4 -1.88 -4.8 -1.88 -4.8 l21.48 0 l0 8.28 s-2.4 -1.88 -4.8 -1.88 l-6.8 0 l0 5.2 l2.8 0 c2.4 0 4.8 -1.88 4.8 -1.88 l0 9.36 s-2.4 -1.88 -4.8 -1.88 l-2.8 0 l0 4.4 l6.8 0 c2.4 0 4.8 -1.88 4.8 -1.88 l0 8.28 l-21.48 0 z M123.16 40.56 c-5.2 0 -10 -3.4 -10.76 -9.68 c-0.76 0.04 -2.6 0.08 -3.32 0.08 l0 4.28 c0 2.36 1.88 4.76 1.88 4.76 l-11.76 0 s1.88 -2.4 1.88 -4.76 l0 -18.48 c0 -2.36 -1.88 -4.76 -1.88 -4.76 l12.4 0 c6.6 0 12.24 2.72 12.24 8.92 c0 4.16 -2.08 6.84 -5.2 8.36 c0.12 3.44 3.76 4.36 6.4 2.64 l0 8.48 c-0.6 0.12 -1.24 0.16 -1.88 0.16 z M109.08 25.64 l1.4 0 c2.84 0 5 -1.4 5 -3.96 c0 -2.96 -2.44 -3.96 -5.28 -3.96 l-1.12 0 l0 7.92 z M144.44 40.64 c-3.44 0 -8.2 -1.48 -8.2 -1.48 l2.8 -7.96 s1.88 3.8 5.2 3.8 c2.68 0 4.36 -1.16 4.36 -2.92 c0 -3.2 -11.76 -3.3984 -11.76 -11.52 c0 -5.96 4.92 -9.12 11.64 -9.12 c3.32 0 7.36 1.8 7.36 1.8 l-2.76 7.52 s-2.24 -3.96 -4.8 -3.96 c-2.16 0 -3.36 1.36 -3.36 2.68 c0 3.12 12.08 3.64 12.08 11.6 c0 5.92 -5.52 9.56 -12.56 9.56 z M172.24 40.56 c-7.32 0 -13.64 -3.6 -13.64 -14.56 c0 -9.4 5.52 -14.56 12.84 -14.56 s13.64 3.6 13.64 14.56 c0 9.44 -5.52 14.56 -12.84 14.56 z M172 34.76 c2.68 0 4.68 -3.12 4.68 -8.76 c0 -6.6 -2.32 -8.72 -5 -8.72 s-4.68 3.08 -4.68 8.72 c0 6.6 2.32 8.76 5 8.76 z M200.00000000000003 40.6 c-7.2 -0.12 -13.32 -3.76 -13.32 -14.56 c0 -9.44 5.52 -14.56 12.84 -14.56 c3.6 0 7.96 1.8 7.96 1.8 l-3.04 7.92 s-2.4 -3.96 -4.84 -3.96 c-2.8 0 -4.68 2.68 -4.68 8.4 c0 6.6 2.4 9.2 5.16 9.2 c2.44 0 4.84 -3.84 4.84 -3.84 l3.04 7.92 s-4.16 1.56 -7.64 1.68 l-0.32 0 z M208.88000000000002 40 c0 0 1.88 -2.4 1.88 -4.76 l0 -18.48 c0 -2.36 -1.88 -4.76 -1.88 -4.76 l11.76 0 s-1.88 2.4 -1.88 4.76 l0 18.48 c0 2.36 1.88 4.76 1.88 4.76 l-11.76 0 z M220.77121000000002 40 c0 0 1.9932 -1.5804 3.0424 -4.7728 l6.0636 -18.454 c0.9864 -3.0024 0.41404 -4.7736 0.41404 -4.7736 l12.709 0 s-0.5724 1.7712 0.41404 4.7736 l0 0 l6.0636 18.454 c1.0492 3.1924 3.0424 4.7724 3.0424 4.7724 l-11.749 0 s1.4008 -1.644 0.51436 -4.72 l-9.28 0 c-0.8864 3.076 0.51436 4.72 0.51436 4.72 l-11.749 0 z M233.64600000000002 29.48 l6 0 l-3 -10.48 z M252.64000000000004 40 c0 0 1.88 -2.4 1.88 -4.8 l0 -18.44 c0 -2.4 -1.88 -4.76 -1.88 -4.76 l11.76 0 s-1.88 2.36 -1.88 4.76 l0 16.84 l6.04 0 c2.36 0 4.76 -1.88 4.76 -1.88 l0 8.28 l-20.68 0 z M284.24 40 c0 0 1.88 -2.36 1.88 -4.76 l0 -18.44 c0 -2.4 -1.88 -4.8 -1.88 -4.8 l12.16 0 s-0.454 1.5708 0.23641 4.2232 l3.6836 11.817 l3.6836 -11.817 c0.69 -2.6524 0.23641 -4.2232 0.23641 -4.2232 l12.16 0 s-1.88 2.4 -1.88 4.8 l0 18.44 c0 2.4 1.88 4.76 1.88 4.76 l-10.96 0 s1.88 -2.36 1.88 -4.76 l0 -10.76 l-5 11.92 l-4 0 l-5 -11.92 l0 10.76 c0 2.4 1.88 4.76 1.88 4.76 l-10.96 0 z M297.16 36.4 c0 0 0.36 -1.88 -0.84 -4.76 l2 4.76 l-1.16 0 z M302.32000000000005 36.4 l2 -4.76 c-1.2 2.88 -0.84 4.76 -0.84 4.76 l-1.16 0 z M317.44 40 c0 0 1.88 -2.36 1.88 -4.76 l0 -18.44 c0 -2.4 -1.88 -4.8 -1.88 -4.8 l21.48 0 l0 8.28 s-2.4 -1.88 -4.8 -1.88 l-6.8 0 l0 5.2 l2.8 0 c2.4 0 4.8 -1.88 4.8 -1.88 l0 9.36 s-2.4 -1.88 -4.8 -1.88 l-2.8 0 l0 4.4 l6.8 0 c2.4 0 4.8 -1.88 4.8 -1.88 l0 8.28 l-21.48 0 z M340.24 40 c0 0 1.84 -2.4 1.84 -4.76 l0 -18.48 c0 -2.36 -1.84 -4.76 -1.84 -4.76 l12.08 0 c7.32 0 14.04 3.44 14.04 14 c0 9.04 -5.92 14 -13.24 14 l-12.88 0 z M350.08000000000004 34.28 l1.32 0 c3.72 0 6.72 -2.92 6.72 -8.28 c0 -6.24 -2.6 -8.28 -6.32 -8.28 l-1.72 0 l0 16.56 z M367.68 40 c0 0 1.88 -2.4 1.88 -4.76 l0 -18.48 c0 -2.36 -1.88 -4.76 -1.88 -4.76 l11.76 0 s-1.88 2.4 -1.88 4.76 l0 18.48 c0 2.36 1.88 4.76 1.88 4.76 l-11.76 0 z M379.57121000000006 40 c0 0 1.9932 -1.5804 3.0424 -4.7728 l6.0636 -18.454 c0.9864 -3.0024 0.41404 -4.7736 0.41404 -4.7736 l12.709 0 s-0.5724 1.7712 0.41404 4.7736 l0 0 l6.0636 18.454 c1.0492 3.1924 3.0424 4.7724 3.0424 4.7724 l-11.749 0 s1.4008 -1.644 0.51436 -4.72 l-9.28 0 c-0.8864 3.076 0.51436 4.72 0.51436 4.72 l-11.749 0 z M392.446 29.48 l6 0 l-3 -10.48 z"></path></g><g id="SvgjsG3996" featurekey="nameFeature-1" transform="matrix(1.247327400277051,0,0,1.247327400277051,16.35139037041887,156.73057506422995)" fill="#111111"><path d="M0.52 40 c0 0 1.84 -2.4 1.84 -4.76 l0 -18.48 c0 -2.36 -1.84 -4.76 -1.84 -4.76 l12.08 0 c7.32 0 14.04 3.44 14.04 14 c0 9.04 -5.92 14 -13.24 14 l-12.88 0 z M10.36 34.28 l1.32 0 c3.72 0 6.72 -2.92 6.72 -8.28 c0 -6.24 -2.6 -8.28 -6.32 -8.28 l-1.72 0 l0 16.56 z M41.88 40.56 c-7.32 0 -13.64 -3.6 -13.64 -14.56 c0 -9.4 5.52 -14.56 12.84 -14.56 s13.64 3.6 13.64 14.56 c0 9.44 -5.52 14.56 -12.84 14.56 z M41.64 34.76 c2.68 0 4.68 -3.12 4.68 -8.76 c0 -6.6 -2.32 -8.72 -5 -8.72 s-4.68 3.08 -4.68 8.72 c0 6.6 2.32 8.76 5 8.76 z M63.24 40 c0 0 0.66916 -1.7408 -0.17566 -4.7736 l-5.1412 -18.456 c-0.8836 -3.2508 -2.8032 -4.7704 -2.8032 -4.7704 l11.348 0 s-1.002 1.558 -0.5452 4.3324 l3.4708 16.188 l2.72 -12.72 l-0.8356 -3.0744 l0.011602 0.048008 c-0.8832 -3.2532 -2.77 -4.7732 -2.77 -4.7732 l11.348 0 s-1.0048 1.5624 -0.5436 4.3432 l3.2692 15.257 l3.3496 -15.63 c0.31719 -2.5472 -0.598 -3.97 -0.598 -3.97 l11.323 0 s-1.9128 1.5704 -2.804 4.7736 l-5.1404 18.453 c-0.844 3.0296 -0.17558 4.7732 -0.17558 4.7732 l-11.908 0 s0.6468 -1.7168 -0.2552 -4.7728 l-0.8708 -2.9472 l-0.8856 2.9472 c-0.9076 3.0208 -0.28 4.7728 -0.28 4.7728 l-11.108 0 z M96.8 40 c0 0 1.8744 -2.3868 1.8744 -4.7732 l0 -18.453 c0 -2.3868 -1.8744 -4.7736 -1.8744 -4.7736 l11.428 0 s-0.31359 1.9612 0.8916 4.7736 l5.1544 12.026 l0 -12.026 c0 -2.3868 -1.8744 -4.7736 -1.8744 -4.7736 l10.948 0 s-1.874 2.3868 -1.874 4.7736 l0 18.453 c0 2.3864 1.874 4.7732 1.874 4.7732 l-11.428 0 s0.26762 -1.9664 -0.9916 -4.768 l-5.054 -11.232 l0 11.227 c0 2.3864 1.874 4.7732 1.874 4.7732 l-10.948 0 z M124.39999999999999 40 c0 0 1.88 -2.4 1.88 -4.8 l0 -18.44 c0 -2.4 -1.88 -4.76 -1.88 -4.76 l11.76 0 s-1.88 2.36 -1.88 4.76 l0 16.84 l6.04 0 c2.36 0 4.76 -1.88 4.76 -1.88 l0 8.28 l-20.68 0 z M159.92 40.56 c-7.32 0 -13.64 -3.6 -13.64 -14.56 c0 -9.4 5.52 -14.56 12.84 -14.56 s13.64 3.6 13.64 14.56 c0 9.44 -5.52 14.56 -12.84 14.56 z M159.67999999999998 34.76 c2.68 0 4.68 -3.12 4.68 -8.76 c0 -6.6 -2.32 -8.72 -5 -8.72 s-4.68 3.08 -4.68 8.72 c0 6.6 2.32 8.76 5 8.76 z M173.17121 40 c0 0 1.9932 -1.5804 3.0424 -4.7728 l6.0636 -18.454 c0.9864 -3.0024 0.41404 -4.7736 0.41404 -4.7736 l12.709 0 s-0.5724 1.7712 0.41404 4.7736 l0 0 l6.0636 18.454 c1.0492 3.1924 3.0424 4.7724 3.0424 4.7724 l-11.749 0 s1.4008 -1.644 0.51436 -4.72 l-9.28 0 c-0.8864 3.076 0.51436 4.72 0.51436 4.72 l-11.749 0 z M186.046 29.48 l6 0 l-3 -10.48 z M205.04000000000002 40 c0 0 1.84 -2.4 1.84 -4.76 l0 -18.48 c0 -2.36 -1.84 -4.76 -1.84 -4.76 l12.08 0 c7.32 0 14.04 3.44 14.04 14 c0 9.04 -5.92 14 -13.24 14 l-12.88 0 z M214.88 34.28 l1.32 0 c3.72 0 6.72 -2.92 6.72 -8.28 c0 -6.24 -2.6 -8.28 -6.32 -8.28 l-1.72 0 l0 16.56 z M232.48000000000002 40 c0 0 1.88 -2.36 1.88 -4.76 l0 -18.44 c0 -2.4 -1.88 -4.8 -1.88 -4.8 l21.48 0 l0 8.28 s-2.4 -1.88 -4.8 -1.88 l-6.8 0 l0 5.2 l2.8 0 c2.4 0 4.8 -1.88 4.8 -1.88 l0 9.36 s-2.4 -1.88 -4.8 -1.88 l-2.8 0 l0 4.4 l6.8 0 c2.4 0 4.8 -1.88 4.8 -1.88 l0 8.28 l-21.48 0 z M279.24 40.56 c-5.2 0 -10 -3.4 -10.76 -9.68 c-0.76 0.04 -2.6 0.08 -3.32 0.08 l0 4.28 c0 2.36 1.88 4.76 1.88 4.76 l-11.76 0 s1.88 -2.4 1.88 -4.76 l0 -18.48 c0 -2.36 -1.88 -4.76 -1.88 -4.76 l12.4 0 c6.6 0 12.24 2.72 12.24 8.92 c0 4.16 -2.08 6.84 -5.2 8.36 c0.12 3.44 3.76 4.36 6.4 2.64 l0 8.48 c-0.6 0.12 -1.24 0.16 -1.88 0.16 z M265.16 25.64 l1.4 0 c2.84 0 5 -1.4 5 -3.96 c0 -2.96 -2.44 -3.96 -5.28 -3.96 l-1.12 0 l0 7.92 z"></path></g></svg>